<svg xmlns="http://www.w3.org/2000/svg" xmlns:xlink="http://www.w3.org/1999/xlink" id="Layer_1" x="0px" y="0px" viewBox="0 0 400 300" style="enable-background:new 0 0 400 300;" xml:space="preserve"><g>	<path d="M58.4,146.1h11v24.1h14.7v8.5H58.4V146.1z"></path>	<path d="M87.1,146.1h11v32.6h-11V146.1z"></path>	<path d="M114.4,154.4v5.6H128v8.3h-13.6v10.4h-11v-32.6h26.5v8.3H114.4z"></path>	<path d="M160.5,170.4v8.3h-27.1v-32.6h26.5v8.3h-15.7v3.8h13.8v7.9h-13.8v4.3H160.5z"></path>	<path d="M186.2,161.5h9.5v13.8c-1.9,1.3-4.2,2.4-6.7,3.1c-2.5,0.7-5,1.1-7.5,1.1c-3.5,0-6.6-0.7-9.4-2.2c-2.8-1.4-4.9-3.5-6.5-6.1  c-1.6-2.6-2.4-5.5-2.4-8.8s0.8-6.2,2.4-8.8c1.6-2.6,3.8-4.6,6.6-6.1c2.8-1.4,6-2.2,9.5-2.2c3.2,0,6.1,0.5,8.6,1.6  c2.5,1.1,4.6,2.6,6.3,4.7l-7,6.2c-2-2.4-4.5-3.6-7.3-3.6c-2.4,0-4.3,0.7-5.8,2.2c-1.4,1.5-2.1,3.4-2.1,6c0,2.5,0.7,4.4,2.1,5.9  c1.4,1.5,3.3,2.2,5.7,2.2c1.4,0,2.7-0.3,4-0.8V161.5z"></path>	<path d="M204.4,175.4c-2.8-2.7-4.2-6.5-4.2-11.4v-17.9h11v17.6c0,2.4,0.4,4.1,1.3,5.2c0.9,1.1,2.1,1.6,3.7,1.6s2.8-0.5,3.7-1.6  c0.9-1.1,1.3-2.8,1.3-5.2v-17.6H232v17.9c0,4.9-1.4,8.7-4.2,11.4s-6.7,4-11.7,4C211.1,179.5,207.2,178.1,204.4,175.4z"></path>	<path d="M258.5,173h-12.4l-2.2,5.7h-11.2l14.2-32.6h10.8l14.2,32.6h-11.4L258.5,173z M255.5,165.1l-3.2-8.2l-3.2,8.2H255.5z"></path>	<path d="M287.8,170.5h-3v8.2h-11v-32.6h15.7c3,0,5.6,0.5,7.9,1.5c2.2,1,4,2.4,5.2,4.3c1.2,1.9,1.8,4,1.8,6.5c0,2.3-0.5,4.4-1.6,6.1  c-1.1,1.7-2.6,3.1-4.6,4.1l6.8,10.1h-11.7L287.8,170.5z M292.1,155.6c-0.7-0.7-1.9-1-3.4-1h-4v7.6h4c1.5,0,2.6-0.3,3.4-1  c0.7-0.7,1.1-1.6,1.1-2.8C293.2,157.2,292.9,156.3,292.1,155.6z"></path>	<path d="M308.5,146.1h16.1c3.6,0,6.8,0.7,9.6,2c2.8,1.3,4.9,3.2,6.5,5.7c1.5,2.5,2.3,5.3,2.3,8.7s-0.8,6.2-2.3,8.7  c-1.5,2.5-3.7,4.3-6.5,5.7c-2.8,1.3-6,2-9.6,2h-16.1V146.1z M324.1,170.2c2.4,0,4.2-0.7,5.7-2c1.4-1.3,2.1-3.2,2.1-5.7  s-0.7-4.4-2.1-5.7c-1.4-1.3-3.3-2-5.7-2h-4.6v15.5H324.1z"></path></g><g>	<path d="M91.5,132.7c-1-0.6-1.8-1.3-2.4-2.3s-0.9-2.1-0.9-3.3s0.3-2.3,0.9-3.3s1.4-1.7,2.4-2.3c1-0.6,2.1-0.8,3.4-0.8  c0.9,0,1.8,0.2,2.6,0.5c0.8,0.3,1.5,0.8,2,1.4l-0.8,0.8c-1-1-2.2-1.5-3.7-1.5c-1,0-1.9,0.2-2.7,0.7c-0.8,0.5-1.5,1.1-1.9,1.9  c-0.5,0.8-0.7,1.7-0.7,2.7s0.2,1.9,0.7,2.7c0.5,0.8,1.1,1.4,1.9,1.9c0.8,0.5,1.7,0.7,2.7,0.7c1.5,0,2.7-0.5,3.7-1.5l0.8,0.8  c-0.6,0.6-1.2,1.1-2,1.4c-0.8,0.3-1.7,0.5-2.6,0.5C93.6,133.5,92.5,133.2,91.5,132.7z"></path>	<path d="M109.9,130h-7l-1.5,3.4H100l5.7-12.6h1.3l5.7,12.6h-1.4L109.9,130z M109.4,129l-3-6.8l-3,6.8H109.4z"></path>	<path d="M114.8,120.8h1.3v11.4h7v1.1h-8.4V120.8z"></path>	<path d="M125.4,120.8h1.3v12.6h-1.3V120.8z"></path>	<path d="M132.2,122v4.9h6.5v1.1h-6.5v5.3h-1.3v-12.6h8.6v1.1H132.2z"></path>	<path d="M144.2,132.7c-1-0.6-1.8-1.3-2.4-2.3c-0.6-1-0.9-2.1-0.9-3.3s0.3-2.3,0.9-3.3s1.4-1.7,2.4-2.3c1-0.6,2.1-0.8,3.4-0.8  s2.4,0.3,3.4,0.8c1,0.6,1.8,1.3,2.4,2.3c0.6,1,0.9,2.1,0.9,3.3s-0.3,2.3-0.9,3.3c-0.6,1-1.4,1.7-2.4,2.3c-1,0.6-2.1,0.8-3.4,0.8  S145.2,133.2,144.2,132.7z M150.2,131.6c0.8-0.4,1.4-1.1,1.9-1.9c0.5-0.8,0.7-1.7,0.7-2.7s-0.2-1.9-0.7-2.7  c-0.5-0.8-1.1-1.4-1.9-1.9s-1.7-0.7-2.7-0.7c-1,0-1.9,0.2-2.7,0.7c-0.8,0.4-1.4,1.1-1.9,1.9c-0.5,0.8-0.7,1.7-0.7,2.7  s0.2,1.9,0.7,2.7c0.5,0.8,1.1,1.4,1.9,1.9c0.8,0.4,1.7,0.7,2.7,0.7C148.5,132.3,149.4,132.1,150.2,131.6z"></path>	<path d="M165.7,133.4l-2.9-4c-0.3,0-0.7,0.1-1,0.1h-3.4v4h-1.3v-12.6h4.7c1.6,0,2.9,0.4,3.8,1.1c0.9,0.8,1.4,1.8,1.4,3.2  c0,1-0.2,1.8-0.7,2.5c-0.5,0.7-1.2,1.2-2.1,1.5l3.1,4.3H165.7z M164.6,127.5c0.7-0.6,1-1.3,1-2.3c0-1-0.3-1.8-1-2.3  c-0.7-0.5-1.6-0.8-2.9-0.8h-3.3v6.3h3.3C163,128.3,164,128,164.6,127.5z"></path>	<path d="M180.6,120.8v12.6h-1.1l-8.1-10.2v10.2h-1.3v-12.6h1.1l8.1,10.2v-10.2H180.6z"></path>	<path d="M184.7,120.8h1.3v12.6h-1.3V120.8z"></path>	<path d="M198,130h-7l-1.5,3.4h-1.4l5.7-12.6h1.3l5.7,12.6h-1.4L198,130z M197.5,129l-3-6.8l-3,6.8H197.5z"></path>	<path d="M216.7,133.6l-1.7-1.8c-1.1,1.1-2.5,1.7-4.2,1.7c-0.8,0-1.5-0.1-2.2-0.4c-0.6-0.3-1.1-0.6-1.5-1.1s-0.5-1-0.5-1.7  c0-0.8,0.2-1.4,0.7-2c0.5-0.6,1.3-1.2,2.4-1.9c-0.6-0.6-1-1.2-1.2-1.6c-0.2-0.4-0.3-0.9-0.3-1.4c0-0.8,0.3-1.4,0.9-1.9  c0.6-0.5,1.3-0.7,2.3-0.7c0.9,0,1.6,0.2,2.1,0.7c0.5,0.4,0.8,1.1,0.8,1.8c0,0.6-0.2,1.2-0.6,1.7s-1.1,1-2.2,1.6l3.4,3.6  c0.4-0.7,0.7-1.5,0.8-2.4l1,0.3c-0.2,1.1-0.6,2.1-1.1,2.9l1.8,1.8L216.7,133.6z M214.2,131l-3.8-3.9c-1,0.6-1.7,1.1-2.1,1.5  c-0.4,0.5-0.6,1-0.6,1.5c0,0.7,0.3,1.2,0.8,1.6s1.3,0.6,2.2,0.6C212.2,132.4,213.3,132,214.2,131z M209.8,122.2  c-0.4,0.3-0.5,0.7-0.5,1.2c0,0.4,0.1,0.7,0.3,1.1c0.2,0.3,0.6,0.8,1.1,1.4c0.9-0.5,1.5-1,1.9-1.3s0.5-0.8,0.5-1.2  c0-0.5-0.2-0.9-0.5-1.1s-0.8-0.4-1.3-0.4C210.6,121.7,210.2,121.9,209.8,122.2z"></path>	<path d="M225.2,133.1c-0.9-0.3-1.5-0.7-2-1.2l0.5-1c0.5,0.5,1.1,0.8,1.8,1.1c0.8,0.3,1.5,0.4,2.3,0.4c1.1,0,2-0.2,2.5-0.6  c0.6-0.4,0.8-0.9,0.8-1.6c0-0.5-0.2-0.9-0.5-1.2c-0.3-0.3-0.7-0.5-1.1-0.7s-1.1-0.3-1.8-0.5c-0.9-0.2-1.7-0.5-2.3-0.7  c-0.6-0.2-1-0.6-1.4-1c-0.4-0.5-0.6-1.1-0.6-1.8c0-0.6,0.2-1.2,0.5-1.7s0.8-0.9,1.5-1.2c0.7-0.3,1.6-0.5,2.6-0.5  c0.7,0,1.4,0.1,2.1,0.3c0.7,0.2,1.3,0.5,1.8,0.8l-0.4,1.1c-0.5-0.3-1.1-0.6-1.7-0.8c-0.6-0.2-1.2-0.3-1.8-0.3  c-1.1,0-1.9,0.2-2.5,0.6s-0.8,1-0.8,1.6c0,0.5,0.2,0.9,0.5,1.2c0.3,0.3,0.7,0.5,1.1,0.7s1.1,0.3,1.9,0.5c0.9,0.2,1.7,0.5,2.2,0.7  c0.6,0.2,1.1,0.6,1.4,1c0.4,0.4,0.6,1.1,0.6,1.8c0,0.6-0.2,1.2-0.5,1.7s-0.9,0.9-1.6,1.2s-1.6,0.5-2.6,0.5  C226.9,133.5,226,133.4,225.2,133.1z"></path>	<path d="M243.3,130h-7l-1.5,3.4h-1.4l5.7-12.6h1.3l5.7,12.6h-1.4L243.3,130z M242.8,129l-3-6.8l-3,6.8H242.8z"></path>	<path d="M258.8,120.8v12.6h-1.1l-8.1-10.2v10.2h-1.3v-12.6h1.1l8.1,10.2v-10.2H258.8z"></path>	<path d="M267,133c-0.6-0.3-1.1-0.8-1.5-1.3l0.8-0.9c0.7,1,1.6,1.5,2.7,1.5c1.6,0,2.3-0.9,2.3-2.8V122h-4.6v-1.1h5.9v8.7  c0,1.3-0.3,2.3-0.9,3s-1.5,1-2.7,1C268.2,133.5,267.6,133.4,267,133z"></path>	<path d="M278.7,132.7c-1-0.6-1.8-1.3-2.4-2.3c-0.6-1-0.9-2.1-0.9-3.3s0.3-2.3,0.9-3.3s1.4-1.7,2.4-2.3c1-0.6,2.1-0.8,3.4-0.8  s2.4,0.3,3.4,0.8c1,0.6,1.8,1.3,2.4,2.3c0.6,1,0.9,2.1,0.9,3.3s-0.3,2.3-0.9,3.3c-0.6,1-1.4,1.7-2.4,2.3c-1,0.6-2.1,0.8-3.4,0.8  S279.7,133.2,278.7,132.7z M284.8,131.6c0.8-0.4,1.4-1.1,1.9-1.9c0.5-0.8,0.7-1.7,0.7-2.7s-0.2-1.9-0.7-2.7  c-0.5-0.8-1.1-1.4-1.9-1.9c-0.8-0.4-1.7-0.7-2.7-0.7s-1.9,0.2-2.7,0.7c-0.8,0.4-1.4,1.1-1.9,1.9c-0.5,0.8-0.7,1.7-0.7,2.7  s0.2,1.9,0.7,2.7c0.5,0.8,1.1,1.4,1.9,1.9c0.8,0.4,1.7,0.7,2.7,0.7S284,132.1,284.8,131.6z"></path>	<path d="M292.4,133.1c-0.9-0.3-1.5-0.7-2-1.2l0.5-1c0.5,0.5,1.1,0.8,1.8,1.1c0.8,0.3,1.5,0.4,2.3,0.4c1.1,0,2-0.2,2.5-0.6  c0.6-0.4,0.8-0.9,0.8-1.6c0-0.5-0.2-0.9-0.5-1.2c-0.3-0.3-0.7-0.5-1.1-0.7s-1.1-0.3-1.8-0.5c-0.9-0.2-1.7-0.5-2.3-0.7  c-0.6-0.2-1-0.6-1.4-1c-0.4-0.5-0.6-1.1-0.6-1.8c0-0.6,0.2-1.2,0.5-1.7s0.8-0.9,1.5-1.2c0.7-0.3,1.6-0.5,2.6-0.5  c0.7,0,1.4,0.1,2.1,0.3c0.7,0.2,1.3,0.5,1.8,0.8l-0.4,1.1c-0.5-0.3-1.1-0.6-1.7-0.8c-0.6-0.2-1.2-0.3-1.8-0.3  c-1.1,0-1.9,0.2-2.5,0.6s-0.8,1-0.8,1.6c0,0.5,0.2,0.9,0.5,1.2c0.3,0.3,0.7,0.5,1.1,0.7s1.1,0.3,1.9,0.5c0.9,0.2,1.7,0.5,2.2,0.7  c0.6,0.2,1.1,0.6,1.4,1c0.4,0.4,0.6,1.1,0.6,1.8c0,0.6-0.2,1.2-0.5,1.7s-0.9,0.9-1.6,1.2s-1.6,0.5-2.6,0.5  C294.2,133.5,293.3,133.4,292.4,133.1z"></path>	<path d="M311.6,132.3v1.1h-8.9v-12.6h8.6v1.1H304v4.5h6.5v1.1H304v4.7H311.6z"></path></g><path d="M352.9,221.9H47.1V78.1h305.9V221.9z M49.6,219.4h300.9V80.6H49.6V219.4z"></path></svg>