<svg xmlns="http://www.w3.org/2000/svg" xmlns:xlink="http://www.w3.org/1999/xlink" id="Layer_1" x="0px" y="0px" viewBox="0 0 400 300" style="enable-background:new 0 0 400 300;" xml:space="preserve"><g>	<g>		<path d="M129.4,198.4v-26.8h5.2v22.2h13.7v4.6H129.4z"></path>		<path d="M159,198.4v-26.8h5.2v26.8H159z"></path>		<path d="M177.4,198.4v-26.8h5.2v22.2h13.7v4.6H177.4z"></path>		<path d="M205.4,171.6l6.6,12.9l6.7-12.9h5.6l-9.7,17.5v9.4h-5.2v-9.4l-9.7-17.4H205.4z"></path>		<path d="M234.7,180.3l0.8-4.6h-1.5v-5.1h5.1v5.2l-1.4,4.5H234.7z"></path>		<path d="M267.4,178.6c-0.2-0.2-0.5-0.4-1-0.7c-0.5-0.3-1-0.6-1.7-0.9c-0.7-0.3-1.4-0.5-2.2-0.7c-0.8-0.2-1.6-0.3-2.4-0.3   c-1.4,0-2.5,0.3-3.2,0.8c-0.7,0.5-1.1,1.3-1.1,2.2c0,0.6,0.1,1,0.4,1.4c0.3,0.4,0.6,0.7,1.2,1c0.5,0.3,1.1,0.5,1.9,0.8   c0.8,0.2,1.7,0.5,2.7,0.7c1.3,0.4,2.5,0.7,3.6,1.1c1.1,0.4,2,0.9,2.7,1.5c0.7,0.6,1.3,1.3,1.7,2.2c0.4,0.8,0.6,1.9,0.6,3.1   c0,1.4-0.3,2.7-0.8,3.7c-0.5,1-1.3,1.8-2.2,2.5c-0.9,0.6-2,1.1-3.2,1.4c-1.2,0.3-2.4,0.4-3.8,0.4c-2,0-4-0.3-6-0.9   c-2-0.6-3.7-1.5-5.3-2.6l2.3-4.5c0.2,0.2,0.6,0.5,1.2,0.9c0.6,0.4,1.3,0.7,2.1,1.1c0.8,0.4,1.7,0.7,2.7,0.9c1,0.3,2,0.4,3,0.4   c2.9,0,4.3-0.9,4.3-2.8c0-0.6-0.2-1.1-0.5-1.5c-0.3-0.4-0.8-0.8-1.4-1.1c-0.6-0.3-1.3-0.6-2.2-0.8c-0.9-0.3-1.8-0.5-2.9-0.8   c-1.3-0.4-2.4-0.7-3.3-1.2c-0.9-0.4-1.7-0.9-2.4-1.5c-0.6-0.6-1.1-1.2-1.4-2c-0.3-0.7-0.5-1.6-0.5-2.7c0-1.4,0.3-2.6,0.8-3.6   c0.5-1.1,1.2-1.9,2.1-2.6c0.9-0.7,1.9-1.2,3.1-1.6c1.2-0.4,2.5-0.5,3.8-0.5c1.9,0,3.6,0.3,5.2,0.9c1.6,0.6,3,1.3,4.2,2.1   L267.4,178.6z"></path>	</g></g><g>	<g>		<path d="M89.1,241.6v-26.8h18v4.6H94.3v6.9H105v4.2H94.3v11.1H89.1z"></path>		<path d="M118.4,241.6v-26.8h5.2V237h13.7v4.6H118.4z"></path>		<path d="M157.7,241.7c-2,0-3.7-0.4-5.3-1.2c-1.6-0.8-3-1.8-4.1-3.1c-1.1-1.3-2-2.7-2.7-4.4c-0.6-1.6-0.9-3.3-0.9-5   c0-1.8,0.3-3.5,1-5.1c0.7-1.6,1.6-3.1,2.8-4.3c1.2-1.3,2.6-2.3,4.2-3c1.6-0.7,3.4-1.1,5.3-1.1c1.9,0,3.7,0.4,5.3,1.2   c1.6,0.8,3,1.8,4.1,3.1c1.1,1.3,2,2.7,2.6,4.4c0.6,1.6,0.9,3.3,0.9,5c0,1.8-0.3,3.5-1,5.1c-0.7,1.6-1.6,3.1-2.7,4.3   c-1.2,1.2-2.5,2.2-4.2,3C161.4,241.4,159.6,241.7,157.7,241.7z M149.9,228.1c0,1.2,0.2,2.3,0.5,3.4c0.4,1.1,0.9,2,1.5,2.9   c0.7,0.8,1.5,1.5,2.5,2c1,0.5,2.1,0.8,3.3,0.8c1.3,0,2.4-0.3,3.3-0.8c1-0.5,1.8-1.2,2.5-2.1c0.7-0.9,1.2-1.8,1.5-2.9   c0.3-1.1,0.5-2.2,0.5-3.3c0-1.2-0.2-2.3-0.5-3.4c-0.4-1.1-0.9-2-1.5-2.9c-0.7-0.8-1.5-1.5-2.5-2c-1-0.5-2.1-0.7-3.3-0.7   c-1.3,0-2.4,0.3-3.4,0.8c-1,0.5-1.8,1.2-2.5,2c-0.7,0.8-1.2,1.8-1.5,2.9C150.1,225.9,149.9,227,149.9,228.1z"></path>		<path d="M190.7,214.8h4.8l3,8.9l3-8.9h4.8l-4.6,12.2l3.4,8.6l7.6-20.9h5.7l-10.9,26.8h-4.4l-4.6-11.3l-4.6,11.3h-4.4l-10.8-26.8   h5.6l7.6,20.9l3.3-8.6L190.7,214.8z"></path>		<path d="M247.3,237v4.6h-18.6v-26.8H247v4.6h-13.1v6.5h11.3v4.2h-11.3v7H247.3z"></path>		<path d="M259,241.6v-26.8h11.9c1.2,0,2.4,0.3,3.4,0.8c1,0.5,1.9,1.2,2.7,2c0.8,0.8,1.3,1.8,1.8,2.9c0.4,1.1,0.6,2.1,0.6,3.2   c0,1.7-0.4,3.3-1.3,4.7s-2,2.4-3.5,3.1l6.1,10.1h-5.9l-5.5-9h-5.1v9H259z M264.2,228h6.5c0.5,0,0.9-0.1,1.3-0.3   c0.4-0.2,0.8-0.5,1.1-0.9c0.3-0.4,0.5-0.9,0.7-1.4c0.2-0.5,0.3-1.1,0.3-1.7c0-0.6-0.1-1.2-0.3-1.7c-0.2-0.5-0.5-1-0.8-1.4   c-0.3-0.4-0.7-0.7-1.2-0.9c-0.4-0.2-0.9-0.3-1.3-0.3h-6.3V228z"></path>		<path d="M307.6,221.8c-0.2-0.2-0.5-0.4-1-0.7c-0.5-0.3-1-0.6-1.7-0.9c-0.7-0.3-1.4-0.5-2.2-0.7c-0.8-0.2-1.6-0.3-2.4-0.3   c-1.4,0-2.5,0.3-3.2,0.8c-0.7,0.5-1.1,1.3-1.1,2.2c0,0.6,0.1,1,0.4,1.4c0.3,0.4,0.6,0.7,1.2,1c0.5,0.3,1.1,0.5,1.9,0.8   c0.8,0.2,1.7,0.5,2.7,0.7c1.3,0.4,2.5,0.7,3.6,1.1c1.1,0.4,2,0.9,2.7,1.5c0.7,0.6,1.3,1.3,1.7,2.2c0.4,0.8,0.6,1.9,0.6,3.1   c0,1.4-0.3,2.7-0.8,3.7c-0.5,1-1.3,1.8-2.2,2.5c-0.9,0.6-2,1.1-3.2,1.4c-1.2,0.3-2.4,0.4-3.8,0.4c-2,0-4-0.3-6-0.9   c-2-0.6-3.7-1.5-5.3-2.6l2.3-4.5c0.2,0.2,0.6,0.5,1.2,0.9c0.6,0.4,1.3,0.7,2.1,1.1c0.8,0.4,1.7,0.7,2.7,0.9c1,0.3,2,0.4,3,0.4   c2.9,0,4.3-0.9,4.3-2.8c0-0.6-0.2-1.1-0.5-1.5c-0.3-0.4-0.8-0.8-1.4-1.1c-0.6-0.3-1.3-0.6-2.2-0.8c-0.9-0.3-1.8-0.5-2.9-0.8   c-1.3-0.4-2.4-0.7-3.3-1.2c-0.9-0.4-1.7-0.9-2.4-1.5c-0.6-0.6-1.1-1.2-1.4-2c-0.3-0.7-0.5-1.6-0.5-2.7c0-1.4,0.3-2.6,0.8-3.6   c0.5-1.1,1.2-1.9,2.1-2.6c0.9-0.7,1.9-1.2,3.1-1.6s2.5-0.5,3.8-0.5c1.9,0,3.6,0.3,5.2,0.9c1.6,0.6,3,1.3,4.2,2.1L307.6,221.8z"></path>	</g></g><path d="M233,79.1c0-11.6-9.4-20.9-20.9-20.9c-5.4,0-10.2,2.1-14,5.4c-3.7-3.3-8.6-5.4-14-5.4c-11.6,0-20.9,9.4-20.9,20.9 c0,5.4,2.1,10.2,5.4,14c-3.3,3.7-5.4,8.6-5.4,14c0,11.6,9.4,20.9,20.9,20.9c5.4,0,10.2-2.1,14-5.4c3.7,3.3,8.6,5.4,14,5.4 c11.6,0,20.9-9.4,20.9-20.9c0-5.4-2.1-10.2-5.4-14C230.9,89.3,233,84.5,233,79.1z M198.1,114c-11.6,0-20.9-9.4-20.9-20.9 s9.4-20.9,20.9-20.9s20.9,9.4,20.9,20.9S209.7,114,198.1,114z"></path></svg>