<svg xmlns="http://www.w3.org/2000/svg" xmlns:xlink="http://www.w3.org/1999/xlink" id="Layer_1" x="0px" y="0px" viewBox="0 0 300 300" style="enable-background:new 0 0 300 300;" xml:space="preserve"><style type="text/css">	.st0{display:none;}</style><path id="blob_3_" class="st0" d="M267.5,196.1c-22.9,31.1-59.2,59-108.1,84.2c-51.9,20.3-95,12.9-131.1-42 c-32.1-48.8-29.1-90.2,14.5-132.1C86.4,64.1,138.5,35,194.6,15c44.9-16,84.9,2.6,93.6,47.9C298.5,122.7,293.2,161.3,267.5,196.1z"></path><path id="blob" d="M259.8,230.6c-27.7,36.1-45.9,48-78.1,62.6C128.4,317.3,62.2,273.8,23.5,216S-4.1,108.2,41.2,65 C70.7,36.7,104.5,20.2,150,7.5c64.6-18.1,139.9-5.3,147.9,56.7C306.1,126.3,289.3,188.4,259.8,230.6z"></path></svg>