<svg xmlns="http://www.w3.org/2000/svg" xmlns:xlink="http://www.w3.org/1999/xlink" id="Layer_1" x="0px" y="0px" viewBox="0 0 300 300" style="enable-background:new 0 0 300 300;" xml:space="preserve"><style type="text/css">	.st0{display:none;}</style><path id="blob_3_" class="st0" d="M267.5,196.1c-22.9,31.1-59.2,59-108.1,84.2c-51.9,20.3-95,12.9-131.1-42 c-32.1-48.8-29.1-90.2,14.5-132.1C86.4,64.1,138.5,35,194.6,15c44.9-16,84.9,2.6,93.6,47.9C298.5,122.7,293.2,161.3,267.5,196.1z"></path><path id="blob" d="M2.8,77.2C11,14.8,83.5-12.6,148.8,5.5c46,12.8,80.6,38.8,110.4,67.2c45.7,43.6,55.6,103.3,16.6,161.5 s-139.8,84.1-189,51.5c-26.4-17.5-43.8-39-61.8-67.6C-0.7,168.6-3.4,127.9,2.8,77.2z"></path></svg>