<svg xmlns="http://www.w3.org/2000/svg" xmlns:xlink="http://www.w3.org/1999/xlink" id="visual" x="0px" y="0px" viewBox="0 0 960 540" style="enable-background:new 0 0 960 540;" xml:space="preserve"><style type="text/css">	.st0{opacity:0.5;fill:#FFFFFF;}	.st1{fill:#FFFFFF;}</style><path class="st0" d="M908.7,0H789.3H651.5h-41.3h-14.7H440.9l-0.8,22.5C439.3,45,437.7,90,456.7,135c19.1,45,59,90,61.1,135 c2.2,45-33.4,90-36.7,135c-3.4,45,25.7,90,40.1,112.5l14.5,22.5h59.7h14.7h41.3h137.9h119.4H960V0H908.7z"></path><path class="st0" d="M143.3,540c-2.3-20.8-7-43.8-15.8-66.8C107.3,420.6,65.2,368,63,315.4c-2.3-52.6,35.3-105.1,38.7-157.7 c3.5-52.6-27.1-105.1-42.3-131.4L44,0H1v540H143.3z"></path><path class="st1" d="M0,174.5V540h87l-15.4-15.2c-15.4-15.2-46.2-45.7-55.8-76.1s2.3-60.9,10.5-91.4s13.1-60.9,11.6-91.4 C36.3,235.4,17.4,191.8,0,174.5"></path><path class="st1" d="M960,0h-84c23.4,46.4,61.5,92.9,63.6,139.3c2.5,51.2-38.5,102.4-42.2,153.6c-3.9,51.2,29.6,102.4,46.2,128 L960,446V0z"></path></svg>