<svg xmlns="http://www.w3.org/2000/svg" xmlns:xlink="http://www.w3.org/1999/xlink" id="visual" x="0px" y="0px" viewBox="0 0 960 540" style="enable-background:new 0 0 960 540;" xml:space="preserve"><style type="text/css">	.st0{opacity:0.5;fill:#FFFFFF;}	.st1{fill:#FFFFFF;}</style><path class="st0" d="M204.2,540c-0.9-17.9-5-35.6-13.1-53c-20.1-43-64.8-84.6-76.3-128.1c-11.4-43.5,10.1-88.7,14.4-133.1 c4.3-44.3-8.7-87.7-31.5-130.6C78.5,58.9,52.4,23,35.1,0H0v540H204.2z"></path><path class="st1" d="M62.1,540c-4.3-14-11.1-35.3-18.9-56.5c-9.6-25.7-20.7-51.3-15.5-77.9c5.1-26.6,26.6-54.1,32.1-80.7 c5.5-26.6-5.2-52.2-18.1-77.7c-9.9-19.4-30.3-46-41.6-69V540H62.1z"></path><path class="st1" d="M960,0.8L903.3,0l9.5,21c6,16.2,18.3,48.5,15.7,81.9c-2.5,33.4-19.6,68-24.1,101.6 c-4.4,33.6,3.9,66.2,20.2,98.2c10.3,20.3,23.8,40.4,35.4,56.4V0.8z"></path><path class="st0" d="M960,0.7L764.7,0c4.3,20.9,10.9,41.5,22.6,64c27.2,52.2,79.6,102.5,86.2,156.3c6.7,53.7-32.4,110.9-32.4,165.1 c0,54.2,39.2,105.5,58.7,131.2l18,23.5l42.2-0.8V0.7z"></path></svg>