<svg xmlns="http://www.w3.org/2000/svg" id="Layer_1" data-name="Layer 1" viewBox="0 0 24 24" stroke-width="1.5" width="100" height="100"><defs><style>.cls-63ce749bea57ea6c83800615-1{fill:none;stroke:currentColor;stroke-miterlimit:10;}</style></defs><path class="cls-63ce749bea57ea6c83800615-1" d="M1.48,23.5a2.87,2.87,0,0,1,2.87-2.87h0A2.88,2.88,0,0,1,7.22,23.5"></path><circle class="cls-63ce749bea57ea6c83800615-1" cx="4.35" cy="16.8" r="1.91"></circle><path class="cls-63ce749bea57ea6c83800615-1" d="M9.13,10.11A2.87,2.87,0,0,1,12,7.24h0a2.87,2.87,0,0,1,2.87,2.87"></path><circle class="cls-63ce749bea57ea6c83800615-1" cx="12" cy="3.41" r="1.91"></circle><path class="cls-63ce749bea57ea6c83800615-1" d="M16.78,23.5a2.88,2.88,0,0,1,2.87-2.87h0a2.87,2.87,0,0,1,2.87,2.87"></path><circle class="cls-63ce749bea57ea6c83800615-1" cx="19.65" cy="16.8" r="1.91"></circle><path class="cls-63ce749bea57ea6c83800615-1" d="M3.44,13.09A8.63,8.63,0,0,1,9,5.84"></path><path class="cls-63ce749bea57ea6c83800615-1" d="M8.87,22a8.6,8.6,0,0,0,6.26,0"></path><path class="cls-63ce749bea57ea6c83800615-1" d="M15,5.85h0a8.57,8.57,0,0,1,5.6,7.24"></path></svg>