<svg xmlns="http://www.w3.org/2000/svg" viewBox="0 0 24 24" stroke-width="1.5" width="100" height="100"><defs><style>.cls-6375f1aeb67f094e4896ca02-1{fill:none;stroke:currentColor;stroke-linecap:square;stroke-miterlimit:10;}</style></defs><g id="dolar_coin" data-name="dolar coin"><path class="cls-6375f1aeb67f094e4896ca02-1" d="M22.5,12A10.5,10.5,0,1,1,12,1.5,10.5,10.5,0,0,1,22.5,12"></path><path class="cls-6375f1aeb67f094e4896ca02-1" d="M9.14,15.82H13a1.91,1.91,0,0,0,1.91-1.91h0A1.9,1.9,0,0,0,13,12h-1.9a1.9,1.9,0,0,1-1.91-1.91h0a1.91,1.91,0,0,1,1.91-1.91h3.81"></path><line class="cls-6375f1aeb67f094e4896ca02-1" x1="12" y1="6.27" x2="12" y2="8.18"></line><line class="cls-6375f1aeb67f094e4896ca02-1" x1="12" y1="15.82" x2="12" y2="17.73"></line></g></svg>