<svg xmlns="http://www.w3.org/2000/svg" id="Layer_1" data-name="Layer 1" viewBox="0 0 24 24" stroke-width="1.5" width="100" height="100"><defs><style>.cls-637642e7c3a86d32eae6f1a4-1{fill:currentColor;}.cls-637642e7c3a86d32eae6f1a4-2{fill:none;stroke:currentColor;stroke-miterlimit:10;}</style></defs><path class="cls-637642e7c3a86d32eae6f1a4-1" d="M15.53,11.09A1.93,1.93,0,0,0,13.6,9.15,1.89,1.89,0,0,0,12,10a1.89,1.89,0,0,0-1.6-.87,1.93,1.93,0,0,0-1.93,1.94c0,2.26,3.53,3.55,3.53,3.55S15.53,13.35,15.53,11.09Z"></path><path class="cls-637642e7c3a86d32eae6f1a4-2" d="M21.5,12A9.5,9.5,0,1,0,12,21.5h9.5l-2.66-2.92A9.43,9.43,0,0,0,21.5,12Z"></path></svg>