<svg xmlns="http://www.w3.org/2000/svg" id="Layer_1" data-name="Layer 1" viewBox="0 0 24 24" stroke-width="1.5" width="100" height="100"><defs><style>.cls-637b7f18f95e86b59c57a003-1{fill:none;stroke:currentColor;stroke-miterlimit:10;}</style></defs><path class="cls-637b7f18f95e86b59c57a003-1" d="M14.86,18.68H9.14a1.9,1.9,0,0,1-1.91-1.91v-7a10.77,10.77,0,0,1,3.14-7.59h0A2.31,2.31,0,0,1,12,1.5h0a2.31,2.31,0,0,1,1.63.67h0a10.77,10.77,0,0,1,3.14,7.59v7A1.9,1.9,0,0,1,14.86,18.68Z"></path><polygon class="cls-637b7f18f95e86b59c57a003-1" points="9.14 18.68 14.86 18.68 13.91 22.5 10.09 22.5 9.14 18.68"></polygon><polygon class="cls-637b7f18f95e86b59c57a003-1" points="16.77 9.14 21.55 14.86 21.55 16.77 16.77 16.77 16.77 9.14"></polygon><polygon class="cls-637b7f18f95e86b59c57a003-1" points="7.23 9.14 2.46 14.86 2.46 16.77 7.23 16.77 7.23 9.14"></polygon><circle class="cls-637b7f18f95e86b59c57a003-1" cx="12" cy="12" r="1.91"></circle><path class="cls-637b7f18f95e86b59c57a003-1" d="M8.49,4.73a4.77,4.77,0,0,0,7,0"></path></svg>