<svg xmlns="http://www.w3.org/2000/svg" id="Layer_1" data-name="Layer 1" viewBox="0 0 24 24" stroke-width="1.5" width="100" height="100"><defs><style>.cls-637b74f4f95e86b59c579f06-1{fill:none;stroke:currentColor;stroke-miterlimit:10;}</style></defs><path class="cls-637b74f4f95e86b59c579f06-1" d="M14.86,15.82v4.77A1.92,1.92,0,0,1,13,22.5H3.41A1.92,1.92,0,0,1,1.5,20.59V3.41A1.92,1.92,0,0,1,3.41,1.5H13a1.92,1.92,0,0,1,1.91,1.91V6.27"></path><path class="cls-637b74f4f95e86b59c579f06-1" d="M10.09,2.45H6.27a1,1,0,0,1-.95-1h5.73A1,1,0,0,1,10.09,2.45Z"></path><line class="cls-637b74f4f95e86b59c579f06-1" x1="7.23" y1="19.64" x2="9.14" y2="19.64"></line><path class="cls-637b74f4f95e86b59c579f06-1" d="M9.14,11.05V13L7.23,15.82h10.5a4.78,4.78,0,0,0,4.77-4.77h0a4.78,4.78,0,0,0-4.77-4.78H13.91A4.77,4.77,0,0,0,9.14,11.05Z"></path><line class="cls-637b74f4f95e86b59c579f06-1" x1="12" y1="11.05" x2="13.91" y2="11.05"></line><line class="cls-637b74f4f95e86b59c579f06-1" x1="14.86" y1="11.05" x2="16.77" y2="11.05"></line><line class="cls-637b74f4f95e86b59c579f06-1" x1="17.73" y1="11.05" x2="19.64" y2="11.05"></line></svg>