<svg xmlns="http://www.w3.org/2000/svg" xmlns:xlink="http://www.w3.org/1999/xlink" id="Layer_1" x="0px" y="0px" viewBox="0 0 300 50" style="enable-background:new 0 0 300 50;" xml:space="preserve"><style type="text/css">	.st0{fill:#0BC4D9;}	.st1{fill:#2C3338;}</style><g>	<polygon class="st0" points="2,10 14.6,10 14.6,45.1 20.7,45.1 20.7,10 33.3,10 33.3,4.8 2,4.8  "></polygon>	<path class="st0" d="M58.8,15.7c-1.6-0.9-3.4-1.3-5.5-1.3c-2.4,0-4.3,0.5-5.7,1.4c-1.5,1-2.5,2.3-3.3,3.9H44v-15h-5.8v40.4h5.9v-18  c0-1.6,0.3-3,0.9-4.1c0.6-1.1,1.5-2,2.6-2.6c1.1-0.6,2.3-0.9,3.7-0.9c2,0,3.6,0.6,4.8,1.8c1.1,1.2,1.7,3,1.7,5.2v18.6h5.9V25.9  c0-2.5-0.4-4.6-1.3-6.3C61.6,17.9,60.4,16.6,58.8,15.7z"></path>	<path class="st0" d="M92.5,18c-1.3-1.2-2.7-2.1-4.3-2.7c-1.6-0.6-3.3-0.8-5-0.8c-2.8,0-5.3,0.7-7.4,2S72.1,19.6,71,22  c-1.2,2.4-1.7,5.1-1.7,8.2c0,3.1,0.6,5.9,1.7,8.2c1.2,2.3,2.8,4.1,5,5.4c2.1,1.3,4.7,1.9,7.7,1.9c2.2,0,4.2-0.3,5.9-1  s3.2-1.6,4.3-2.9c1.2-1.2,1.9-2.7,2.4-4.3l-5.6-1c-0.4,0.9-0.9,1.7-1.5,2.4s-1.5,1.1-2.4,1.4s-1.9,0.5-3.1,0.5  c-1.7,0-3.2-0.4-4.5-1.1c-1.3-0.7-2.3-1.8-3-3.2c-0.7-1.3-1-2.9-1.1-4.8h21.5v-2.1c0-2.7-0.4-5.1-1.1-7  C94.8,20.7,93.8,19.2,92.5,18z M75.1,27.3c0.1-1.3,0.4-2.5,1-3.7c0.7-1.3,1.6-2.3,2.8-3.2c1.2-0.8,2.7-1.2,4.3-1.2  c1.5,0,2.9,0.3,4,1c1.1,0.7,2,1.6,2.7,2.8c0.6,1.2,0.9,2.6,0.9,4.1H75.1z"></path>	<path class="st1" d="M142.6,26c-1.2-0.9-2.4-1.6-3.8-2.1c-1.4-0.5-2.7-1-4-1.3l-3.9-1c-0.8-0.2-1.6-0.5-2.5-0.8  c-0.9-0.3-1.7-0.7-2.4-1.2c-0.7-0.5-1.3-1-1.8-1.7c-0.5-0.7-0.7-1.5-0.7-2.5c0-1.1,0.3-2.2,1-3.1c0.7-0.9,1.6-1.6,2.8-2.1  c1.2-0.5,2.6-0.8,4.3-0.8c2.3,0,4.2,0.5,5.8,1.5c1.5,1,2.4,2.5,2.6,4.3h5.9c-0.1-2.2-0.7-4.1-1.9-5.8c-1.2-1.7-2.9-3-5-4  c-2.1-1-4.5-1.4-7.2-1.4c-2.7,0-5.1,0.5-7.3,1.4c-2.2,1-3.9,2.3-5.1,4.1c-1.3,1.7-1.9,3.8-1.9,6.1c0,2.8,0.9,5.1,2.8,6.8  c1.9,1.7,4.4,3,7.7,3.9l4.8,1.3c1.4,0.4,2.7,0.8,3.9,1.3c1.2,0.5,2.1,1.1,2.7,1.9c0.7,0.8,1,1.7,1,2.9c0,1.3-0.4,2.5-1.2,3.4  c-0.8,1-1.8,1.7-3.2,2.3c-1.3,0.5-2.9,0.8-4.6,0.8c-1.6,0-3-0.2-4.3-0.7c-1.3-0.5-2.4-1.2-3.2-2.1c-0.8-1-1.3-2.2-1.4-3.6h-6.1  c0.1,2.4,0.8,4.5,2.1,6.3c1.2,1.8,3,3.1,5.2,4.1c2.2,1,4.8,1.4,7.8,1.4c3.2,0,5.8-0.5,8.1-1.5s3.9-2.4,5.1-4.2s1.8-3.8,1.8-6.1  c0-1.8-0.4-3.4-1.1-4.7C144.7,28,143.8,26.9,142.6,26z"></path>	<path class="st1" d="M174.2,18c-1.3-1.2-2.7-2.1-4.3-2.7s-3.3-0.8-5-0.8c-2.8,0-5.3,0.7-7.4,2s-3.7,3.2-4.9,5.5  c-1.2,2.4-1.7,5.1-1.7,8.2c0,3.1,0.6,5.9,1.7,8.2c1.2,2.3,2.8,4.1,5,5.4c2.1,1.3,4.7,1.9,7.7,1.9c2.2,0,4.2-0.3,5.9-1  s3.2-1.6,4.3-2.9c1.1-1.2,1.9-2.7,2.4-4.3l-5.6-1c-0.4,0.9-0.9,1.7-1.5,2.4c-0.7,0.6-1.5,1.1-2.4,1.4s-1.9,0.5-3.1,0.5  c-1.7,0-3.2-0.4-4.5-1.1c-1.3-0.7-2.3-1.8-3-3.2c-0.7-1.3-1-2.9-1.1-4.8h21.5v-2.1c0-2.7-0.4-5.1-1.1-7  C176.5,20.7,175.5,19.2,174.2,18z M156.8,27.3c0.1-1.3,0.4-2.5,1-3.7c0.7-1.3,1.6-2.3,2.8-3.2c1.2-0.8,2.7-1.2,4.3-1.2  c1.5,0,2.9,0.3,4,1c1.1,0.7,2,1.6,2.7,2.8c0.6,1.2,0.9,2.6,0.9,4.1H156.8z"></path>	<polygon class="st1" points="194.5,38.2 194.1,38.2 186.5,14.8 180.1,14.8 191.1,45.1 197.5,45.1 208.4,14.8 202.1,14.8  "></polygon>	<path class="st1" d="M233.3,18c-1.3-1.2-2.7-2.1-4.3-2.7s-3.3-0.8-5-0.8c-2.8,0-5.3,0.7-7.4,2s-3.7,3.2-4.9,5.5  c-1.2,2.4-1.7,5.1-1.7,8.2c0,3.1,0.6,5.9,1.7,8.2c1.2,2.3,2.8,4.1,5,5.4c2.1,1.3,4.7,1.9,7.7,1.9c2.2,0,4.2-0.3,5.9-1  s3.2-1.6,4.3-2.9c1.1-1.2,1.9-2.7,2.4-4.3l-5.6-1c-0.4,0.9-0.9,1.7-1.5,2.4c-0.7,0.6-1.5,1.1-2.4,1.4s-1.9,0.5-3.1,0.5  c-1.7,0-3.2-0.4-4.5-1.1c-1.3-0.7-2.3-1.8-3-3.2c-0.7-1.3-1-2.9-1.1-4.8h21.5v-2.1c0-2.7-0.4-5.1-1.1-7  C235.6,20.7,234.6,19.2,233.3,18z M216,27.3c0.1-1.3,0.4-2.5,1-3.7c0.7-1.3,1.6-2.3,2.8-3.2c1.2-0.8,2.7-1.2,4.3-1.2  c1.5,0,2.9,0.3,4,1c1.1,0.7,2,1.6,2.7,2.8c0.6,1.2,0.9,2.6,0.9,4.1H216z"></path>	<path class="st1" d="M267.1,19.6c-0.9-1.7-2.1-3-3.6-3.8c-1.6-0.9-3.4-1.3-5.4-1.3c-2.3,0-4.2,0.5-5.6,1.5c-1.5,1-2.6,2.3-3.3,3.9  h-0.4v-4.9h-5.7v30.3h5.9v-18c0-1.6,0.3-3,0.9-4.1c0.6-1.1,1.4-2,2.5-2.6c1.1-0.6,2.3-0.9,3.6-0.9c2,0,3.6,0.6,4.7,1.9  s1.7,3,1.7,5.2v18.6h5.9V25.9C268.4,23.4,267.9,21.3,267.1,19.6z"></path></g><circle class="st0" cx="287" cy="40" r="5"></circle></svg>