<svg xmlns="http://www.w3.org/2000/svg" xmlns:xlink="http://www.w3.org/1999/xlink" id="Layer_1" x="0px" y="0px" viewBox="0 0 48 48" style="enable-background:new 0 0 48 48;" xml:space="preserve"><path d="M35.3,10.5C34.4,5.1,29.7,1,24,1s-10.4,4.1-11.3,9.5H1.8v28.8c0,4.3,3.5,7.7,7.7,7.7h28.9c4.3,0,7.7-3.5,7.7-7.7V10.5H35.3z  M24,5c3.4,0,6.3,2.3,7.2,5.5H16.8C17.7,7.3,20.6,5,24,5z M42.2,39.3c0,2.1-1.7,3.7-3.7,3.7H9.5c-2.1,0-3.7-1.7-3.7-3.7V14.5h6.6 v5.7h4v-5.7h15.1v5.7h4v-5.7h6.6V39.3z"></path></svg>