<svg xmlns="http://www.w3.org/2000/svg" xmlns:xlink="http://www.w3.org/1999/xlink" id="Layer_1" x="0px" y="0px" viewBox="0 0 48 48" style="enable-background:new 0 0 48 48;" xml:space="preserve"><path d="M45.2,42.5c-1.5-8.2-6.6-14.4-13.4-17.1c3.4-2.4,5.7-6.4,5.7-11C37.5,7.1,31.4,1,24,1s-13.5,6-13.5,13.5 c0,4.5,2.2,8.5,5.7,11C9.4,28.1,4.3,34.3,2.8,42.5L2,46.6L6,47.3l0.7-4.1C8.4,34.1,15.3,28,24,28c0,0,0,0,0,0 c8.7,0,15.6,6.1,17.3,15.3l0.7,4.1l3.9-0.7L45.2,42.5z M24,5c5.2,0,9.5,4.2,9.5,9.5S29.2,24,24,24c-5.2,0-9.5-4.2-9.5-9.5 S18.8,5,24,5z"></path></svg>